<svg  id="dashboard" viewBox="0 0 37 37" fill="none" xmlns="http://www.w3.org/2000/svg">
  <path d="M18.5003 34.8876C17.4674 34.8876 16.419 34.6564 15.602 34.1784L7.12284 29.2914C3.66951 26.9634 3.45367 26.6089 3.45367 22.9551V14.0443C3.45367 10.3905 3.65409 10.0359 7.04576 7.73887L15.5865 2.80553C17.2053 1.86512 19.749 1.86512 21.3678 2.80553L29.8778 7.70803C33.3311 10.0359 33.547 10.3905 33.547 14.0443V22.9397C33.547 26.5934 33.3465 26.948 29.9549 29.2451L21.414 34.1784C20.5815 34.6564 19.5332 34.8876 18.5003 34.8876ZM18.5003 4.42428C17.8528 4.42428 17.2207 4.54762 16.7736 4.8097L8.29451 9.7122C5.78159 11.408 5.78159 11.408 5.78159 14.0443V22.9397C5.78159 25.5759 5.78159 25.5759 8.35617 27.318L16.7736 32.1743C17.6832 32.6984 19.3328 32.6984 20.2424 32.1743L28.7215 27.2718C31.219 25.5759 31.219 25.5759 31.219 22.9397V14.0443C31.219 11.408 31.219 11.408 28.6445 9.66595L20.227 4.8097C19.7799 4.54762 19.1478 4.42428 18.5003 4.42428Z" fill="black" />
  <path d="M18.5 24.2812C15.3088 24.2812 12.7188 21.6912 12.7188 18.5C12.7188 15.3088 15.3088 12.7188 18.5 12.7188C21.6912 12.7188 24.2812 15.3088 24.2812 18.5C24.2812 21.6912 21.6912 24.2812 18.5 24.2812ZM18.5 15.0312C16.5883 15.0312 15.0312 16.5883 15.0312 18.5C15.0312 20.4117 16.5883 21.9688 18.5 21.9688C20.4117 21.9688 21.9688 20.4117 21.9688 18.5C21.9688 16.5883 20.4117 15.0312 18.5 15.0312Z" fill="black" />
</svg>

<svg id="dashboardside" viewBox="0 0 24 24" fill="none" xmlns="http://www.w3.org/2000/svg">
  <path d="M9 22H15C20 22 22 20 22 15V9C22 4 20 2 15 2H9C4 2 2 4 2 9V15C2 20 4 22 9 22Z" stroke="#9197B3" stroke-width="1.5" stroke-linecap="round" stroke-linejoin="round" />
  <path d="M16.28 13.61C15.15 14.74 13.53 15.09 12.1 14.64L9.51001 17.22C9.33001 17.41 8.96001 17.53 8.69001 17.49L7.49001 17.33C7.09001 17.28 6.73001 16.9 6.67001 16.51L6.51001 15.31C6.47001 15.05 6.60001 14.68 6.78001 14.49L9.36001 11.91C8.92001 10.48 9.26001 8.86001 10.39 7.73001C12.01 6.11001 14.65 6.11001 16.28 7.73001C17.9 9.34001 17.9 11.98 16.28 13.61Z" stroke="#9197B3" stroke-width="1.5" stroke-miterlimit="10" stroke-linecap="round" stroke-linejoin="round" />
  <path d="M10.45 16.28L9.59998 15.42" stroke="#9197B3" stroke-width="1.5" stroke-miterlimit="10" stroke-linecap="round" stroke-linejoin="round" />
  <path d="M13.3945 10.7H13.4035" stroke="#9197B3" stroke-width="2" stroke-linecap="round" stroke-linejoin="round" />
</svg>

<svg id="products" viewBox="0 0 24 24" fill="none" xmlns="http://www.w3.org/2000/svg">
  <path d="M15 22.75H9C3.57 22.75 1.25 20.43 1.25 15V9C1.25 3.57 3.57 1.25 9 1.25H15C20.43 1.25 22.75 3.57 22.75 9V15C22.75 20.43 20.43 22.75 15 22.75ZM9 2.75C4.39 2.75 2.75 4.39 2.75 9V15C2.75 19.61 4.39 21.25 9 21.25H15C19.61 21.25 21.25 19.61 21.25 15V9C21.25 4.39 19.61 2.75 15 2.75H9Z" />
  <path d="M12.0006 13.0797C11.8706 13.0797 11.7406 13.0497 11.6206 12.9797L6.32061 9.9197C5.96061 9.7097 5.84059 9.2497 6.05059 8.8997C6.26059 8.5397 6.72061 8.4197 7.07061 8.6297L11.9906 11.4797L16.8806 8.6497C17.2406 8.4397 17.7006 8.5697 17.9006 8.9197C18.1006 9.2697 17.9806 9.7397 17.6306 9.9397L12.3706 12.9797C12.2606 13.0397 12.1306 13.0797 12.0006 13.0797Z"  />
  <path d="M12 18.5201C11.59 18.5201 11.25 18.1801 11.25 17.7701V12.3301C11.25 11.9201 11.59 11.5801 12 11.5801C12.41 11.5801 12.75 11.9201 12.75 12.3301V17.7701C12.75 18.1801 12.41 18.5201 12 18.5201Z" />
  <path d="M12.0002 18.7498C11.4202 18.7498 10.8503 18.6198 10.3903 18.3698L7.19025 16.5898C6.23025 16.0598 5.49023 14.7898 5.49023 13.6898V10.2998C5.49023 9.20981 6.24025 7.9398 7.19025 7.3998L10.3903 5.6198C11.3103 5.1098 12.6902 5.1098 13.6102 5.6198L16.8102 7.3998C17.7702 7.9298 18.5103 9.19981 18.5103 10.2998V13.6898C18.5103 14.7798 17.7602 16.0498 16.8102 16.5898L13.6102 18.3698C13.1502 18.6298 12.5802 18.7498 12.0002 18.7498ZM12.0002 6.7498C11.6702 6.7498 11.3502 6.8098 11.1202 6.9398L7.92026 8.7198C7.43026 8.9898 6.99023 9.7498 6.99023 10.2998V13.6898C6.99023 14.2498 7.43026 14.9998 7.92026 15.2698L11.1202 17.0498C11.5802 17.3098 12.4202 17.3098 12.8802 17.0498L16.0802 15.2698C16.5702 14.9998 17.0103 14.2398 17.0103 13.6898V10.2998C17.0103 9.73981 16.5702 8.9898 16.0802 8.7198L12.8802 6.9398C12.6502 6.8098 12.3302 6.7498 12.0002 6.7498Z"  />
</svg>